<svg width="165" height="33" viewBox="0 0 165 33" fill="none" xmlns="http://www.w3.org/2000/svg">
<path d="M8.8252 24.3662C6.33496 24.3662 4.46973 23.8828 3.22949 22.916C1.99902 21.9492 1.21777 20.8115 0.885742 19.5029C0.563477 18.1943 0.402344 16.6758 0.402344 14.9473V2.52539H3.24414V14.9033C3.24414 17.7256 3.71777 19.5811 4.66504 20.4697C5.6123 21.3584 6.99902 21.8027 8.8252 21.8027C10.6514 21.8027 12.0381 21.3584 12.9854 20.4697C13.9326 19.5811 14.4062 17.7256 14.4062 14.9033V2.52539H17.2627V14.9473C17.2627 17.5449 16.9502 19.459 16.3252 20.6895C15.71 21.9199 14.7773 22.8428 13.5273 23.458C12.2773 24.0635 10.71 24.3662 8.8252 24.3662ZM24.4844 10.4355C25.8613 8.88281 27.4092 8.10645 29.1279 8.10645C32.6338 8.10645 34.3867 10.0156 34.3867 13.834V24H31.6182V13.9512C31.6182 12.6816 31.3887 11.7686 30.9297 11.2119C30.4805 10.6553 29.7383 10.377 28.7031 10.377C27.2969 10.377 25.8906 11.207 24.4844 12.8672V24H21.7158V8.45801H24.4844V10.4355ZM41.1836 24H38.415V8.45801H41.1836V24ZM41.1836 5.51367H38.415V2.52539H41.1836V5.51367ZM48.0391 10.3184C49.2695 8.84375 50.749 8.10645 52.4775 8.10645C54.5088 8.10645 56.0811 8.8291 57.1943 10.2744C58.3076 11.71 58.8643 13.6533 58.8643 16.1045C58.8643 18.6533 58.2393 20.6699 56.9893 22.1543C55.749 23.6289 54.1816 24.3662 52.2871 24.3662C50.6074 24.3662 49.1914 23.8438 48.0391 22.7988V24H45.2705V2.52539H48.0391V10.3184ZM48.0391 20.3086C49.2207 21.5684 50.5781 22.1982 52.1113 22.1982C53.3027 22.1982 54.25 21.6904 54.9531 20.6748C55.6562 19.6494 56.0078 18.126 56.0078 16.1045C56.0078 14.1904 55.6758 12.7402 55.0117 11.7539C54.3477 10.7578 53.4199 10.2598 52.2285 10.2598C50.6953 10.2598 49.2988 11.1484 48.0391 12.9258V20.3086ZM68.5762 24.3662C66.291 24.3662 64.4551 23.6533 63.0684 22.2275C61.6816 20.792 60.9883 18.7949 60.9883 16.2363C60.9883 13.6973 61.6572 11.71 62.9951 10.2744C64.3428 8.8291 66.1006 8.10645 68.2686 8.10645C70.4854 8.10645 72.2529 8.81445 73.5713 10.2305C74.8994 11.6465 75.5635 13.6484 75.5635 16.2363V16.8955H63.8594C63.9766 18.6924 64.4697 20.0254 65.3389 20.8945C66.2178 21.7637 67.2969 22.1982 68.5762 22.1982C69.543 22.1982 70.4121 21.9541 71.1836 21.4658C71.9648 20.9678 72.375 20.2646 72.4141 19.3564H75.2705C75.0557 20.958 74.3281 22.1934 73.0879 23.0625C71.8574 23.9316 70.3535 24.3662 68.5762 24.3662ZM72.6484 14.7275C72.4238 13.2334 71.9209 12.1152 71.1396 11.373C70.3584 10.6309 69.4014 10.2598 68.2686 10.2598C67.165 10.2598 66.2178 10.6309 65.4268 11.373C64.6357 12.1055 64.1328 13.2236 63.918 14.7275H72.6484ZM81.4375 10.4355C82.8145 8.88281 84.3623 8.10645 86.0811 8.10645C89.5869 8.10645 91.3398 10.0156 91.3398 13.834V24H88.5713V13.9512C88.5713 12.6816 88.3418 11.7686 87.8828 11.2119C87.4336 10.6553 86.6914 10.377 85.6562 10.377C84.25 10.377 82.8438 11.207 81.4375 12.8672V24H78.6689V8.45801H81.4375V10.4355Z" fill="#F4F4F4"/>
<path d="M108.795 25.08C107.975 25.08 107.355 24.95 106.935 24.69C106.535 24.45 106.265 24.17 106.125 23.85C106.005 23.53 105.945 23.28 105.945 23.1C105.945 22.52 106.205 22.04 106.725 21.66C107.265 21.26 107.865 21.06 108.525 21.06C109.165 21.06 109.955 20.97 110.895 20.79C111.855 20.59 112.865 20.31 113.925 19.95C115.005 19.59 116.035 19.14 117.015 18.6C118.015 18.06 118.885 17.44 119.625 16.74C120.365 16.04 120.875 15.27 121.155 14.43C120.715 14.35 120.275 14.29 119.835 14.25C119.395 14.19 118.955 14.16 118.515 14.16C117.035 14.16 115.505 14.32 113.925 14.64C112.345 14.96 110.775 15.27 109.215 15.57C108.835 15.65 108.495 15.58 108.195 15.36C108.155 15.78 108.115 16.17 108.075 16.53C108.055 16.87 108.035 17.24 108.015 17.64C107.975 18.62 107.885 19.38 107.745 19.92C107.625 20.44 107.485 20.81 107.325 21.03C107.165 21.25 106.995 21.38 106.815 21.42C106.635 21.46 106.465 21.48 106.305 21.48C106.245 21.48 106.205 21.48 106.185 21.48C105.825 21.48 105.485 21.39 105.165 21.21C104.845 21.03 104.585 20.66 104.385 20.1C104.185 19.52 104.085 18.65 104.085 17.49C104.085 13.81 104.485 10.69 105.285 8.13C106.105 5.55 107.275 3.59 108.795 2.25C110.335 0.889999 112.175 0.209999 114.315 0.209999C115.995 0.209999 117.305 0.669999 118.245 1.59C119.185 2.49 119.655 3.79 119.655 5.49C119.655 6.35 119.485 7.21 119.145 8.07C118.805 8.93 118.325 9.78 117.705 10.62C118.085 10.54 118.455 10.48 118.815 10.44C119.175 10.38 119.515 10.35 119.835 10.35C121.715 10.35 123.105 10.69 124.005 11.37C124.905 12.03 125.355 12.92 125.355 14.04C125.355 15.16 125.035 16.21 124.395 17.19C123.775 18.17 122.945 19.07 121.905 19.89C120.885 20.69 119.755 21.42 118.515 22.08C117.275 22.72 116.035 23.27 114.795 23.73C113.555 24.17 112.405 24.5 111.345 24.72C110.285 24.96 109.435 25.08 108.795 25.08ZM108.555 12.27C108.675 12.21 108.805 12.17 108.945 12.15C110.745 11.85 112.125 11.44 113.085 10.92C114.045 10.4 114.705 9.75 115.065 8.97C115.425 8.19 115.605 7.26 115.605 6.18C115.605 5.9 115.565 5.6 115.485 5.28C115.405 4.96 115.245 4.69 115.005 4.47C114.785 4.23 114.445 4.11 113.985 4.11C112.465 4.11 111.275 4.8 110.415 6.18C109.575 7.54 108.955 9.57 108.555 12.27ZM141.006 25.35C140.546 25.35 140.126 25.16 139.746 24.78C139.386 24.42 139.206 23.81 139.206 22.95C139.206 22.31 139.256 21.42 139.356 20.28C139.476 19.12 139.696 17.63 140.016 15.81C139.316 17.25 138.586 18.53 137.826 19.65C137.066 20.77 136.316 21.65 135.576 22.29C134.856 22.91 134.166 23.22 133.506 23.22C132.446 23.22 131.606 22.9 130.986 22.26C130.366 21.6 130.056 20.37 130.056 18.57C130.056 17.71 130.126 16.74 130.266 15.66C130.426 14.58 130.626 13.5 130.866 12.42C131.106 11.34 131.346 10.38 131.586 9.54C131.846 8.68 132.076 8.04 132.276 7.62C132.436 7.26 132.636 6.98 132.876 6.78C133.136 6.58 133.466 6.48 133.866 6.48C134.506 6.48 134.996 6.69 135.336 7.11C135.676 7.53 135.846 7.96 135.846 8.4C135.846 8.74 135.766 9.23 135.606 9.87C135.466 10.51 135.286 11.22 135.066 12C134.866 12.78 134.656 13.58 134.436 14.4C134.216 15.22 134.026 15.99 133.866 16.71C133.726 17.43 133.656 18.04 133.656 18.54C133.656 19.16 133.896 19.47 134.376 19.47C134.656 19.47 135.016 19.2 135.456 18.66C135.916 18.12 136.396 17.4 136.896 16.5C137.416 15.58 137.936 14.58 138.456 13.5C138.996 12.4 139.486 11.29 139.926 10.17C140.386 9.03 140.776 7.98 141.096 7.02C141.296 6.42 141.566 6 141.906 5.76C142.246 5.52 142.636 5.4 143.076 5.4C143.756 5.4 144.276 5.59 144.636 5.97C145.016 6.35 145.206 6.89 145.206 7.59C145.206 7.91 145.156 8.45 145.056 9.21C144.956 9.97 144.826 10.86 144.666 11.88C144.526 12.9 144.356 13.98 144.156 15.12C143.956 16.26 143.756 17.38 143.556 18.48C143.376 19.58 143.196 20.59 143.016 21.51C142.836 22.41 142.686 23.13 142.566 23.67C142.366 24.47 142.126 24.95 141.846 25.11C141.566 25.27 141.286 25.35 141.006 25.35ZM153.644 32.25C152.524 32.25 151.504 32.18 150.584 32.04C149.664 31.92 148.764 31.72 147.884 31.44C147.004 31.16 146.054 30.79 145.034 30.33C144.614 30.13 144.264 29.92 143.984 29.7C143.704 29.48 143.564 29.15 143.564 28.71C143.564 28.07 143.764 27.58 144.164 27.24C144.544 26.92 145.074 26.76 145.754 26.76C146.114 26.76 146.574 26.88 147.134 27.12C147.694 27.38 148.334 27.67 149.054 27.99C149.794 28.33 150.614 28.62 151.514 28.86C152.414 29.12 153.384 29.25 154.424 29.25C155.484 29.25 156.474 28.81 157.394 27.93C158.314 27.05 159.054 25.81 159.614 24.21C160.194 22.63 160.484 20.76 160.484 18.6C160.484 18.1 160.474 17.56 160.454 16.98C160.434 16.38 160.414 15.75 160.394 15.09C159.674 16.45 158.894 17.72 158.054 18.9C157.214 20.08 156.344 21.04 155.444 21.78C154.564 22.5 153.674 22.86 152.774 22.86C151.674 22.86 150.874 22.6 150.374 22.08C149.894 21.54 149.654 20.69 149.654 19.53C149.654 18.55 149.724 17.48 149.864 16.32C150.024 15.14 150.234 13.95 150.494 12.75C150.754 11.55 151.054 10.41 151.394 9.33C151.754 8.23 152.134 7.28 152.534 6.48C152.834 5.9 153.294 5.61 153.914 5.61C154.314 5.61 154.714 5.8 155.114 6.18C155.534 6.56 155.744 7.07 155.744 7.71C155.744 8.07 155.654 8.59 155.474 9.27C155.294 9.95 155.074 10.72 154.814 11.58C154.574 12.42 154.324 13.31 154.064 14.25C153.804 15.17 153.584 16.08 153.404 16.98C153.224 17.86 153.134 18.66 153.134 19.38C153.134 19.46 153.194 19.5 153.314 19.5C153.554 19.5 153.874 19.3 154.274 18.9C154.694 18.48 155.154 17.94 155.654 17.28C156.174 16.6 156.694 15.86 157.214 15.06C157.754 14.24 158.274 13.43 158.774 12.63C159.274 11.83 159.724 11.1 160.124 10.44C160.064 10.12 160.024 9.84 160.004 9.6C160.004 9.34 160.004 9.12 160.004 8.94C160.004 8.12 160.144 7.44 160.424 6.9C160.724 6.36 161.304 6.09 162.164 6.09C162.724 6.09 163.154 6.3 163.454 6.72C163.754 7.12 163.904 7.69 163.904 8.43C163.904 8.75 163.854 9.12 163.754 9.54C163.654 9.94 163.454 10.58 163.154 11.46L163.484 10.53C163.664 12.33 163.814 13.93 163.934 15.33C164.074 16.73 164.144 18.12 164.144 19.5C164.144 22.1 163.704 24.35 162.824 26.25C161.964 28.17 160.744 29.65 159.164 30.69C157.604 31.73 155.764 32.25 153.644 32.25Z" fill="#FFA500"/>
</svg>
